<svg width="100" height="100" viewBox="0 0 100 100" fill="none" xmlns="http://www.w3.org/2000/svg">
<path d="M77.061 67.3695C87.3159 53.2286 86.0708 33.3385 73.3259 20.5936C59.2011 6.46881 36.3004 6.46881 22.1756 20.5936C14.5197 28.2494 11.0135 38.4835 11.6568 48.501C14.6958 45.6474 18.4783 43.5764 22.6825 42.6098C23.4235 37.3621 25.812 32.3022 29.8481 28.2661C39.7355 18.3788 55.766 18.3788 65.6534 28.2661C75.5407 38.1535 75.5407 54.184 65.6534 64.0713C61.6701 68.0546 56.6897 70.4332 51.5156 71.207C50.5833 75.4216 48.543 79.2199 45.7158 82.2805C54.0306 82.7462 62.4755 80.3553 69.4541 75.1078L84.3463 90L92.0189 82.3275L77.061 67.3695Z" fill="#0EA0C6"/>
<path d="M22.1756 71.7439C21.9421 71.5104 21.7125 71.2745 21.4867 71.0363C22.4898 71.8368 23.4114 72.7135 24.2375 73.6539C23.5318 73.0488 22.8439 72.4121 22.1756 71.7439Z" fill="#0EA0C6"/>
<path fill-rule="evenodd" clip-rule="evenodd" d="M42.0083 80.3921C49.8188 72.5816 49.8188 59.9184 42.0083 52.1079C34.1979 44.2974 21.5346 44.2974 13.7241 52.1079C5.91359 59.9184 5.91359 72.5816 13.7241 80.3921C21.5346 88.2026 34.1979 88.2026 42.0083 80.3921ZM17.3271 59.9541L23.6909 66.3179L17.3276 72.6812L21.5702 76.9238L27.9335 70.5605L34.2976 76.9247L38.5403 72.682L32.1761 66.3179L38.5408 59.9533L34.2981 55.7106L27.9335 62.0753L21.5697 55.7115L17.3271 59.9541Z" fill="#0EA0C6"/>
</svg>
