<svg width="100" height="100" viewBox="0 0 100 100" fill="none" xmlns="http://www.w3.org/2000/svg">
<path d="M57.1611 49.5354C57.1611 50.4743 56.9762 51.404 56.6169 52.2713C56.2576 53.1387 55.731 53.9268 55.0671 54.5907C54.4033 55.2546 53.6151 55.7812 52.7478 56.1405C51.8804 56.4997 50.9507 56.6847 50.0119 56.6847C49.073 56.6847 48.1434 56.4997 47.276 56.1405C46.4086 55.7812 45.6205 55.2546 44.9566 54.5907C44.2927 53.9268 43.7661 53.1387 43.4069 52.2713C43.0476 51.404 42.8627 50.4743 42.8627 49.5354C42.8627 47.6394 43.6159 45.8209 44.9566 44.4802C46.2973 43.1395 48.1158 42.3862 50.0119 42.3862C51.908 42.3862 53.7264 43.1395 55.0671 44.4802C56.4079 45.8209 57.1611 47.6394 57.1611 49.5354Z" fill="#0EA0C6"/>
<path d="M50.0089 65.9104C41.2208 66.1356 32.4547 64.9272 24.0552 62.3328L24.6277 62.4841C20.8062 61.2708 17.244 59.3564 14.1234 56.8389L14.1857 56.8864C13.0039 56.0385 12.0185 54.9459 11.2968 53.6831C10.575 52.4202 10.1337 51.0167 10.003 49.5681L10 49.5295C10 44.8009 15.1824 40.1732 23.8861 37.1534C31.3379 34.7001 39.914 33.2851 48.8193 33.2851L50.0564 33.294H49.9941C58.9374 33.1587 67.842 34.4956 76.3512 37.2513L75.7728 37.0881C79.4582 38.2671 82.906 40.089 85.9567 42.4693L85.8855 42.4159C87.0451 43.2256 88.0138 44.2789 88.724 45.5019C89.4341 46.725 89.8686 48.0884 89.997 49.4969L90 49.5354C90 54.4479 84.2035 59.4198 74.8621 62.5108C67.8523 64.6734 59.7923 65.9193 51.4417 65.9193C50.9374 65.9193 50.4361 65.9134 49.9347 65.9045H50.0089V65.9104ZM50.0089 36.7203C49.6945 36.7143 49.3207 36.7143 48.9469 36.7143C40.4005 36.7143 32.1685 38.0552 24.4468 40.5381L25.0133 40.3809C17.0098 43.1723 13.4204 46.9902 13.4204 49.5384C13.4204 52.1875 17.2797 56.3613 25.7401 59.2507C32.4117 61.3183 40.0801 62.5108 48.0273 62.5108C48.7244 62.5108 49.4186 62.5019 50.1098 62.4841L50.0089 62.4871C58.2492 62.647 66.4632 61.5078 74.3489 59.1112L73.7941 59.2566C82.5749 56.3376 86.6093 52.1637 86.6093 49.5265C86.4665 48.6206 86.1384 47.7539 85.6453 46.9805C85.1522 46.2072 84.5048 45.544 83.7437 45.0323L83.72 45.0175C81.0738 42.9656 78.0932 41.386 74.9095 40.3483L74.7019 40.2889C67.6772 38.0166 59.5936 36.7054 51.2074 36.7054C50.7861 36.7054 50.3678 36.7084 49.9496 36.7143H50.0119L50.0089 36.7203Z" fill="#0EA0C6"/>
<path d="M33.7882 85.1688L33.631 85.1718C32.2872 85.1718 31.0264 84.8187 29.9377 84.2017L29.9763 84.2225C25.8885 81.8493 24.4646 75.0501 26.1792 66.0053C28.2468 56.7262 31.5989 48.5209 36.0991 41.0869L35.8944 41.4548C40.1507 33.8537 45.5821 26.9736 51.9875 21.0691L52.0469 21.0157C54.8257 18.4775 58.0247 16.4418 61.501 14.9997L61.7176 14.9196C62.9249 14.3382 64.3429 14 65.841 14C67.3272 14 68.7363 14.3352 69.9941 14.9315L69.9347 14.9077C74.1916 17.3581 75.6037 24.8751 73.6072 34.5043C71.4714 43.3058 68.2142 51.0573 63.9306 58.1145L64.1382 57.7496C59.8309 65.5515 54.6188 72.232 48.5168 77.978L48.4752 78.0166C45.5926 80.6552 42.2545 82.7479 38.6236 84.1928L38.404 84.2699C37.0395 84.8069 35.4613 85.1362 33.809 85.1747H33.7912L33.7882 85.1688ZM37.3628 42.3121L38.8431 43.1664C34.7464 49.93 31.5307 57.7793 29.6292 66.127L29.5283 66.6609C27.9472 74.9938 29.472 80.0042 31.6642 81.2738C32.2308 81.5764 32.9012 81.7514 33.6132 81.7514L33.7941 81.7484H33.7852C36.6182 81.7484 41.0768 79.9537 46.2326 75.4536C52.0979 69.9184 57.073 63.5104 60.9819 56.4562L61.1836 56.0558C65.2597 49.3288 68.2857 42.0193 70.1572 34.3797L70.2699 33.8398C72.1359 24.7683 70.5251 19.2151 68.2349 17.8861C67.3684 17.5544 66.4422 17.4073 65.5155 17.4543C64.5889 17.5013 63.6823 17.7413 62.8538 18.159L62.8923 18.1412C59.7188 19.4465 56.7997 21.3001 54.2688 23.6173L54.2895 23.5995C48.2432 29.1633 43.1027 35.637 39.0537 42.7867L38.849 43.1783L37.3628 42.3121Z" fill="#0EA0C6"/>
<path d="M66.2326 85.2103C62.3583 85.2103 57.4518 82.8757 52.3198 78.4586C45.8804 72.5991 40.4097 65.7567 36.1109 58.1857L35.8974 57.7793C31.6553 50.811 28.3299 42.7244 26.3601 34.1216L26.2533 33.5728C25.7442 31.2772 25.4905 28.9323 25.4969 26.5808C25.4969 25.0175 25.6066 23.4838 25.8173 21.9798L25.7965 22.1519C25.9144 20.7405 26.3399 19.3721 27.043 18.1426C27.7461 16.9132 28.7099 15.8526 29.8665 15.0353L29.8962 15.0145C34.1382 12.5524 41.3616 15.0857 48.7096 21.6238C54.7111 27.2961 59.8287 33.8356 63.892 41.0246L64.1056 41.434C68.5152 48.5874 71.7613 56.3954 73.7229 64.5666L73.8357 65.1184C74.3192 67.2216 74.598 69.6393 74.598 72.1193C74.598 73.8309 74.4675 75.5099 74.2124 77.1504L74.2361 76.9665C74.0932 78.4138 73.6407 79.8135 72.9093 81.0705C72.1779 82.3276 71.1847 83.4127 69.997 84.2521L69.9644 84.2729C68.8726 84.891 67.6385 85.2141 66.3839 85.2103L66.2237 85.2074L66.2326 85.2103ZM38.8579 56.0706C42.9988 63.4338 48.2758 70.0974 54.4942 75.8155L54.5535 75.8689C60.9789 81.3954 66.0753 82.5909 68.2824 81.3094C70.5755 79.9864 72.2545 74.5577 70.5191 65.7858C68.4367 57.2127 65.218 49.666 60.97 42.8223L61.1629 43.1546C57.2561 36.1359 52.3071 29.7505 46.4847 24.2166L46.4491 24.1839C39.5254 18.0314 33.9158 16.6491 31.6227 17.9721C30.9103 18.5479 30.325 19.2651 29.9038 20.0785C29.4826 20.8918 29.2345 21.7837 29.1753 22.6977V22.7185C28.7144 26.1793 28.8771 29.6947 29.6559 33.0982L29.6173 32.9024C31.6138 41.6594 34.7998 49.3931 39.0567 56.4088L38.8609 56.0617L38.8579 56.0706Z" fill="#0EA0C6"/>
</svg>
